<svg width="694" height="694" viewBox="0 0 694 694" fill="none" xmlns="http://www.w3.org/2000/svg">
<path d="M391.25 52.8268L579.636 161.592C607.018 177.401 623.886 206.617 623.886 238.235V455.765C623.886 487.383 607.018 516.599 579.636 532.408L391.25 641.173C363.868 656.982 330.132 656.982 302.75 641.173L114.364 532.408C86.9815 516.599 70.1135 487.383 70.1135 455.765V238.235C70.1135 206.617 86.9815 177.401 114.364 161.592L302.75 52.8268C330.132 37.0178 363.868 37.0178 391.25 52.8268Z" fill="#094518" stroke="white" stroke-width="23"/>
<path d="M393.75 34.4967L594.261 150.262C623.19 166.964 641.011 197.831 641.011 231.235V462.765C641.011 496.169 623.19 527.036 594.261 543.738L393.75 659.503C364.821 676.205 329.179 676.206 300.25 659.503L99.7392 543.738C70.8102 527.036 52.9892 496.169 52.9892 462.765V231.235C52.9892 197.831 70.8102 166.964 99.7392 150.262L300.25 34.4967C329.179 17.7945 364.821 17.7945 393.75 34.4967Z" stroke="black" stroke-width="13"/>
<path d="M406.331 259H153L189.19 331.499H406.331C446.305 331.499 478.711 363.959 478.711 403.999C478.711 444.04 446.305 476.498 406.331 476.498C466.293 476.498 514.901 427.81 514.901 367.749C514.901 307.689 466.293 259 406.331 259Z" fill="white"/>
<path opacity="0.3" d="M323.945 456.462C311.913 432.36 329.411 404.001 356.313 404.001H406.327C426.315 404.001 442.517 420.23 442.517 440.251C442.517 460.271 426.315 476.5 406.327 476.5H356.313C342.606 476.5 330.075 468.743 323.945 456.462Z" fill="white"/>
<g opacity="0.6" filter="url(#filter0_d_1584_55)">
<path d="M406.337 331.502H225.387L261.577 404.002H406.337C426.324 404.002 442.527 420.232 442.527 440.252C442.527 460.272 426.324 476.502 406.337 476.502C446.312 476.502 478.717 444.042 478.717 404.002C478.717 363.962 446.312 331.502 406.337 331.502Z" fill="white"/>
</g>
<defs>
<filter id="filter0_d_1584_55" x="221.387" y="331.502" width="261.331" height="152.999" filterUnits="userSpaceOnUse" color-interpolation-filters="sRGB">
<feFlood flood-opacity="0" result="BackgroundImageFix"/>
<feColorMatrix in="SourceAlpha" type="matrix" values="0 0 0 0 0 0 0 0 0 0 0 0 0 0 0 0 0 0 127 0" result="hardAlpha"/>
<feOffset dy="4"/>
<feGaussianBlur stdDeviation="2"/>
<feComposite in2="hardAlpha" operator="out"/>
<feColorMatrix type="matrix" values="0 0 0 0 0 0 0 0 0 0 0 0 0 0 0 0 0 0 0.25 0"/>
<feBlend mode="normal" in2="BackgroundImageFix" result="effect1_dropShadow_1584_55"/>
<feBlend mode="normal" in="SourceGraphic" in2="effect1_dropShadow_1584_55" result="shape"/>
</filter>
</defs>
</svg>
